<svg width="75" height="60" viewBox="0 0 75 60" fill="none" xmlns="http://www.w3.org/2000/svg">
<path d="M40.1871 21.4144C38.0797 19.5706 37.9463 17.8623 39.6536 15.7473C39.8937 15.449 40.1604 15.1507 40.3738 14.8254C41.9478 12.5477 41.4142 10.27 39.0133 9.02265C38.8266 8.91419 38.6132 8.80573 38.3731 8.69727C38.3998 8.83284 38.3998 8.91419 38.4265 8.96842C39.2268 10.5411 39.0667 11.9782 37.9463 13.3069C37.7595 13.5238 37.5995 13.7679 37.4661 14.0119C35.4387 17.2929 37.4394 20.8179 40.1871 21.4144Z" fill="#C99E71"/>
<path d="M36.0256 18.6216C34.7985 17.2929 34.7718 16.127 35.8655 14.717C36.0256 14.5272 36.1856 14.3102 36.319 14.0933C37.3327 12.5749 37.066 10.975 35.6521 10.0531C35.5454 9.97177 35.412 9.89043 35.2786 9.80908C35.2786 9.89043 35.2786 9.94466 35.3053 9.99889C35.7588 11.0835 35.5988 12.0868 34.9052 12.9816C34.7985 13.1172 34.6918 13.2799 34.585 13.4425C33.3046 15.666 34.3983 18.1606 36.0256 18.6216Z" fill="#C99E71"/>
<path d="M41.2008 19.8146C40.854 19.2181 40.6939 18.5944 41.0407 17.9436C41.2008 17.6454 41.4142 17.3742 41.6009 17.1302C42.0278 16.5608 42.1078 15.9642 41.841 15.3677C41.4142 15.9642 41.0141 16.5336 40.5872 17.1302C39.7869 18.2148 39.947 19.1096 41.2008 19.8146Z" fill="#C99E71"/>
<path d="M10.4961 36.762V35.3249L10.4161 35.2978C9.88255 35.0809 9.3757 34.9453 8.86884 34.9453C8.1219 34.9453 7.50834 35.2165 7.08151 35.7588C6.62801 36.3011 6.4146 37.0332 6.38792 37.9551C6.38792 38.877 6.60134 39.6363 7.02816 40.1515C7.45499 40.6938 8.06855 40.9649 8.81549 40.9921H8.84217C9.3757 40.9921 9.88255 40.8565 10.3894 40.5853L10.4694 40.5582V39.6905L10.2827 39.799C9.77585 40.0701 9.29567 40.1786 8.86884 40.1786C8.36199 40.1786 7.98852 39.9888 7.72175 39.6363C7.45499 39.2838 7.29493 38.7144 7.3216 37.928C7.3216 37.1959 7.45499 36.6536 7.74843 36.3011C8.01519 35.9486 8.38867 35.7859 8.89552 35.7859C9.21564 35.7859 9.50908 35.8401 9.72249 35.9215V36.7892L10.4961 36.762Z" fill="#C99E71"/>
<path d="M14.8177 41.046C15.5113 41.046 16.0715 40.7748 16.4717 40.2325C16.8718 39.6902 17.0852 38.931 17.0852 37.9819C17.0852 37.0871 16.8985 36.355 16.525 35.8398C16.1515 35.2975 15.618 35.0264 14.9244 35.0264C14.2308 35.0264 13.6706 35.2975 13.2438 35.8398C12.8437 36.3821 12.6302 37.1143 12.6302 38.0362C12.6302 38.9581 12.817 39.7173 13.2171 40.2596C13.6173 40.7477 14.1508 41.0189 14.8177 41.046ZM13.9107 36.3279C14.1508 36.0025 14.4709 35.8127 14.8977 35.8398C15.3246 35.8398 15.6447 36.0025 15.8581 36.355C16.0982 36.7075 16.2049 37.2498 16.2049 37.9819C16.2049 38.7412 16.0715 39.3106 15.8314 39.6631C15.5913 40.0156 15.2712 40.2054 14.8711 40.2054C14.4442 40.2054 14.1508 40.0156 13.9107 39.6631C13.6706 39.2835 13.5639 38.7141 13.5639 37.9819C13.5372 37.2227 13.6706 36.6533 13.9107 36.3279Z" fill="#C99E71"/>
<path d="M19.2193 40.1782V40.9646L21.4068 40.9917V40.2054H20.7132V38.4971H21.5669V39.1207H22.3138L22.3405 37.2227H21.5669V37.7378L20.7132 37.7107L20.7399 35.9211H22.2605V36.6532H23.0341L23.0607 35.1619L19.2727 35.1348V35.9211H19.8596L19.8329 40.1782H19.2193Z" fill="#C99E71"/>
<path d="M24.7947 40.2327V41.019H26.9555L26.9822 40.2327H26.2619L26.2886 38.5515H27.1156V39.1752H27.8892V37.25H27.1423V37.7652H26.2886V35.9756H27.8359L27.8092 36.7077H28.6095L28.6361 35.2163L24.8214 35.1621V35.9485H25.435L25.4083 40.2327H24.7947Z" fill="#C99E71"/>
<path d="M30.3701 40.2593L30.3434 41.0456L34.2382 41.0728L34.2649 39.5814H33.4646V40.2864H31.8373V38.4968H32.5843V39.1204H33.3579V37.1952H32.611V37.7104H31.864V36.0022L33.3846 36.0293V36.7343L34.1849 36.7614V35.2429L30.3968 35.2158V36.0022H31.0104L30.957 40.2864L30.3701 40.2593Z" fill="#C99E71"/>
<path d="M36.239 40.314L36.2123 41.1003L40.1071 41.1274L40.1337 39.6361L39.3334 39.609V40.3411L37.7062 40.314V38.5244H38.4531V39.148H39.2267V37.2499H38.4798V37.7651L37.7062 37.738L37.7329 36.0569H39.2534V36.789H40.0537V35.2976L36.2656 35.2705V36.0297L36.8792 36.0569L36.8259 40.314H36.239Z" fill="#C99E71"/>
<path d="M51.7914 36.9788V35.623L51.7114 35.5959C51.2845 35.379 50.831 35.2705 50.3242 35.2705C49.7373 35.2705 49.2838 35.4061 48.937 35.7044C48.5902 36.0026 48.4035 36.3822 48.4035 36.8703C48.4035 37.1415 48.4568 37.3855 48.5369 37.5753C48.6436 37.7651 48.7503 37.9278 48.9103 38.0634C49.0704 38.199 49.2304 38.3074 49.4172 38.3888C49.6039 38.4701 49.7907 38.5515 49.9507 38.6057C50.1375 38.6871 50.2975 38.7684 50.4576 38.8226C50.591 38.904 50.6977 38.9582 50.8044 39.0396C50.8844 39.1209 50.9644 39.2022 50.9911 39.3107C51.0445 39.3921 51.0711 39.5276 51.0711 39.6632C51.0711 39.9344 50.9911 40.1242 50.8044 40.2869C50.6176 40.4496 50.3509 40.5038 50.0307 40.5038C49.7106 40.5038 49.4439 40.4767 49.2304 40.3953V39.5819H48.4302V40.9647L48.5102 40.9919C48.9637 41.1817 49.4439 41.2901 49.9774 41.2901H50.0041C50.591 41.2901 51.0711 41.1274 51.4179 40.8292C51.7914 40.5309 51.9781 40.0971 51.9781 39.5819C51.9781 39.2836 51.9248 39.0396 51.8448 38.8497C51.7647 38.6599 51.6313 38.4972 51.4713 38.3617C51.3379 38.2261 51.1512 38.1176 50.9644 38.0363C50.7777 37.9549 50.591 37.8736 50.4042 37.7922C50.2175 37.7109 50.0574 37.6567 49.8974 37.5753C49.764 37.5211 49.6306 37.4397 49.5506 37.3855C49.4705 37.3042 49.3905 37.2228 49.3372 37.1415C49.2838 37.0601 49.2571 36.9517 49.2571 36.8161C49.2571 36.5992 49.3372 36.4365 49.4972 36.2738C49.6573 36.1111 49.924 36.0297 50.2442 36.0569C50.5109 36.0569 50.751 36.1111 50.9377 36.1653V36.9517L51.7914 36.9788Z" fill="#C99E71"/>
<path d="M53.9522 40.4497V41.2361L56.033 41.2632V40.4768H55.4194L55.4461 38.6601L57.9004 38.6872V40.4768H57.2868V41.2632H59.3409L59.3676 40.5039H58.754L58.7807 36.2197H59.3942V35.4334H57.3135V36.1926L57.927 36.2197L57.9004 37.9009L55.4461 37.8738V36.1926H56.0597V35.4062H54.0056L53.9789 36.1926H54.5925L54.5658 40.4497H53.9522Z" fill="#C99E71"/>
<path d="M63.6892 41.4259C63.7158 41.4259 63.7158 41.4259 63.6892 41.4259C64.3827 41.4259 64.943 41.1547 65.3431 40.6124C65.7432 40.0701 65.9567 39.3109 65.9567 38.3618C65.9567 37.467 65.7699 36.7349 65.3965 36.2197C65.023 35.6774 64.4895 35.4062 63.7959 35.4062C63.1023 35.4062 62.5421 35.6774 62.1152 36.2197C61.7151 36.762 61.5017 37.4941 61.5017 38.4161C61.5017 39.338 61.6884 40.0972 62.0886 40.6395C62.4887 41.1276 63.0222 41.3988 63.6892 41.4259ZM62.7822 36.7078C63.0222 36.3824 63.3424 36.2197 63.7692 36.2197C64.196 36.2197 64.5161 36.3824 64.7295 36.7349C64.9696 37.0874 65.0763 37.6297 65.0763 38.3618C65.0763 39.1211 64.943 39.6905 64.7029 40.043C64.4628 40.3955 64.1427 40.5853 63.7425 40.5853C63.3157 40.5853 63.0222 40.3955 62.7822 40.043C62.5421 39.6634 62.4354 39.0939 62.4354 38.3618C62.4354 37.6026 62.5421 37.0332 62.7822 36.7078Z" fill="#C99E71"/>
<path d="M68.1175 40.5581V41.3445L70.305 41.3716V40.5852H69.6114V39.0939H69.9582C70.5984 39.0939 71.1053 38.9312 71.452 38.6329C71.7988 38.3075 71.9856 37.8466 71.9856 37.2229C71.9856 36.6806 71.8255 36.2739 71.5321 35.9756C71.2386 35.6773 70.7585 35.5418 70.1449 35.5418L68.1975 35.5146V36.301H68.8111L68.7844 40.5852L68.1175 40.5581ZM69.9848 38.3075H69.6114L69.638 36.301H70.0649C70.4383 36.301 70.7051 36.3823 70.8652 36.5179C71.0252 36.6535 71.1052 36.8975 71.1052 37.2772C71.1052 37.6568 70.9985 37.9008 70.8385 38.0635C70.5984 38.2262 70.3316 38.3075 69.9848 38.3075Z" fill="#C99E71"/>
<path d="M63.3034 31.8268C63.4368 31.7184 63.5435 31.6099 63.6769 31.5014C65.1175 30.1999 65.0908 29.5762 63.5435 28.3289C60.4491 25.8614 60.4491 25.8614 62.6632 22.5533C63.6769 21.0078 63.4368 20.0045 61.7029 19.4893C58.395 18.486 57.5413 18.8656 59.0886 14.1476C59.1152 14.0662 59.1686 13.9577 59.1953 13.8764C59.5421 12.602 59.1686 11.9783 57.8348 11.8156C57.0078 11.7072 56.1541 11.7885 55.3272 11.7343C53.5932 11.6529 53.193 11.192 53.1397 9.42947C53.1397 9.02274 53.1397 8.61601 53.1397 8.23639C53.1397 5.57908 52.7395 5.25369 50.2053 5.85023C46.7373 6.6637 46.7373 6.6637 45.4568 3.24715C44.6299 1.0508 44.2297 0.915224 42.309 2.18965C39.1879 4.22331 39.1878 4.22331 36.8136 1.29484C35.4265 -0.440548 34.8129 -0.440548 33.4524 1.34907C31.0248 4.52158 31.1582 4.41312 28.0371 2.24388C26.063 0.860993 25.5295 1.13215 24.7558 3.46408C23.8755 6.1485 23.5554 7.3687 20.4609 5.93158C20.2475 5.82312 19.9807 5.85023 19.7406 5.796C17.6866 5.30792 17.1797 5.60619 17.2064 7.7212C17.233 11.8427 16.7529 11.8156 13.0982 11.7885C11.1508 11.7885 10.6973 12.4664 11.2308 14.3102C12.3246 18.1606 12.3246 18.1606 8.61652 19.5164C6.88255 20.1401 6.56243 21.062 7.60282 22.5533C10.0037 26.0241 10.0571 25.9428 6.66914 28.4374C5.20193 29.522 5.20193 30.3626 6.58911 31.5014C6.74917 31.637 6.90923 31.7455 7.06928 31.8811H0V32.9928H71.8933V31.8811H63.3034V31.8268ZM11.7644 29.9016C11.791 16.8591 22.3016 6.25696 35.133 6.22985C48.0178 6.22985 58.5817 16.9676 58.5017 30.0914C58.5017 30.6609 58.475 31.2574 58.4216 31.8268H49.6984C52.3127 30.0101 53.5932 27.4341 52.5795 25.8343C52.0193 24.9395 50.8188 24.5599 49.3249 24.7497C49.3783 24.3701 49.4316 23.9905 49.4583 23.6108C49.5117 23.1499 49.3516 22.6889 49.0315 22.3364C48.7114 21.9839 48.2579 21.767 47.7777 21.767H23.502C23.0219 21.767 22.5684 21.9839 22.2482 22.3364C21.9281 22.6889 21.7947 23.1228 21.8214 23.6108C22.0882 26.7291 23.1819 29.5491 24.8359 31.8268H11.8444C11.791 31.2032 11.7644 30.5524 11.7644 29.9016ZM46.5773 31.6099C47.6443 30.0643 48.4713 28.3018 48.9781 26.458C49.9919 26.2139 50.8188 26.3495 51.1123 26.8105C51.3524 27.1901 51.2457 27.8137 50.8455 28.4916C50.392 29.2509 49.6184 30.0101 48.658 30.6337C47.9644 31.0947 47.2708 31.4201 46.5773 31.6099ZM9.81697 29.4135C10.1371 15.1779 21.5546 4.11485 35.4531 4.25042C49.3516 4.386 60.9826 16.371 60.3957 31.176C60.3957 31.393 60.369 31.6099 60.369 31.8268H59.302C59.3553 31.2303 59.382 30.6066 59.382 29.983C59.4087 16.4795 48.5246 5.38927 35.2664 5.36215C21.8481 5.33504 10.9374 16.3439 10.9107 29.9287C10.9107 30.5795 10.9374 31.2032 10.9907 31.8268H9.87032C9.81697 31.0405 9.81697 30.227 9.81697 29.4135Z" fill="#C99E71"/>
<path d="M3 44.9238H14.4176C13.6173 48.0692 13.8574 48.0963 17.5654 48.2047C19.6462 48.259 20.073 48.6928 20.1797 50.7536C20.3664 54.8751 20.3664 54.8751 24.2345 53.7363C25.9952 53.2211 26.6354 53.5194 27.3023 55.2276C27.5691 55.8784 27.7025 56.5563 27.9426 57.2071C28.4494 58.59 29.1697 58.8882 30.4502 58.1561C31.2238 57.7223 31.8907 57.1257 32.6376 56.6648C33.5713 56.0682 34.4516 55.9598 35.1986 57.0444C35.7321 57.8036 36.319 58.5628 36.9326 59.2678C37.7595 60.244 38.5332 60.244 39.3868 59.2678C39.947 58.6442 40.4005 57.9392 40.9341 57.2884C41.9478 56.0411 42.6413 55.9326 43.9485 56.8274C44.6421 57.2884 45.309 57.7765 46.0293 58.2103C47.123 58.9153 47.87 58.5628 48.2968 57.3426C48.5635 56.5834 48.9103 55.8513 49.1237 55.0921C49.4705 53.7363 50.2975 53.3024 51.5513 53.6007C52.3249 53.7905 53.0452 54.1159 53.7921 54.3328C55.3394 54.7938 56.1664 54.2244 56.2464 52.5703C56.2731 51.784 56.2731 50.9705 56.2731 50.157C56.2464 48.9368 56.8866 48.3132 58.0337 48.2047C58.5139 48.1505 59.0208 48.2047 59.8477 48.2047C62.302 48.3945 63.0222 47.6082 61.9285 44.8966H75V43.7849H3V44.9238ZM56.2464 44.9238C51.9248 50.3197 45.3357 53.7634 38.053 53.6549C30.797 53.6549 24.2879 50.2384 20.0196 44.9238H56.2464ZM38.0263 55.6073C29.5165 55.6073 22.1004 51.3501 17.5387 44.8966H18.9259C23.3542 50.7536 30.3168 54.5226 38.1597 54.5226C45.9226 54.604 52.9118 50.7807 57.3401 44.8966H58.6206C53.9522 51.4315 46.3494 55.7428 38.0263 55.6073Z" fill="#C99E71"/>
</svg>
